<svg id="Layer_1" enable-background="new 0 0 512 512" height="512" viewBox="0 0 512 512" width="512" xmlns="http://www.w3.org/2000/svg"><path fill="#FFFFFF" d="m330 511.62v-263.566c-8.873-5.187-19.005-8.434-30-8.434h-120v242h120c16.553 0 30 13.462 30 30zm-90-212h60v30h-60zm0 60h60v30h-60z"/><path fill="#FFFFFF" d="m360 248.054v263.566c0-16.538 13.447-30 30-30h122v-242h-122c-10.995 0-21.127 3.247-30 8.434zm90 141.566h-60v-30h60zm0-60h-60v-30h60z"/><path fill="#FFFFFF" d="m210 31.949c-33.329 9.322-62.111 48.816-77.659 102.671h77.659z"/><path fill="#FFFFFF" d="m240 31.949v102.671h77.659c-15.548-53.855-44.33-93.349-77.659-102.671z"/><path fill="#FFFFFF" d="m349.091 134.62h81.995c-32.883-75.002-105.497-128.556-191.086-134.24v.63c49.682 8.778 90.478 60.71 109.091 133.61z"/><path fill="#FFFFFF" d="m95.277 284.62c-3.19-19.277-5.277-39.261-5.277-60 0-20.892 1.767-40.931 4.823-60h-86.453c-5.308 19.135-8.37 39.197-8.37 60 0 20.673 2.889 40.807 8.271 60z"/><path fill="#FFFFFF" d="m210 1.01v-.63c-85.589 5.684-158.203 59.238-191.085 134.24h81.995c18.612-72.9 59.408-124.832 109.09-133.61z"/><path fill="#FFFFFF" d="m150 314.62h-17.567c4.688 16.278 10.671 31.179 17.567 44.509z"/><path fill="#FFFFFF" d="m359.639 215.855c9.855-3.69 19.929-6.235 30.361-6.235h58.925c-1.095-15.427-3.287-30.551-7.295-45h-86.453c2.62 16.346 4.039 33.536 4.462 51.235z"/><path fill="#FFFFFF" d="m19.252 314.62c24.794 56.109 72.05 100.554 130.748 121.604v-24.382c-21.295-23.983-38.057-57.817-48.344-97.222z"/><path fill="#FFFFFF" d="m329.586 215.525c-.48-17.569-2.025-34.715-4.953-50.905h-84.633v45h60c10.157 0 19.975 2.408 29.586 5.905z"/><path fill="#FFFFFF" d="m150 209.62h60v-45h-84.633c-3.437 19.006-5.367 39.161-5.367 60 0 20.735 2.021 40.878 5.477 60h24.523z"/></svg>