<svg version="1.1" id="Ebene_1" xmlns="http://www.w3.org/2000/svg" x="0" y="0" viewBox="0 0 836.22 155.76" xml:space="preserve"><style type="text/css">.st0{fill:#00a5d9}</style><switch><g><path class="st0" d="M818.11 21.21c.72.48.56 5.05-.88 5.85-.72.4-3.76 1.2-6.25 1.84 0-3.28 0-6.41.08-8.57 2.32-.16 3.6-.32 5.85.32.4.08.8.24 1.28.56h-.08zm0 9.93c.88-.4 1.76-.8 2.24-1.28 2.64-2.4 3.6-9.93.72-12.17-1.52-1.2-2.8-.96-4.57-1.28-1.52-.32-9.85.32-9.85.32s.08 1.68.08 2c0 .72-.08 10.09-.08 18.5v.56c0 .4.08.88.32 1.36.72.16 1.2 0 1.92 0l.56.08h.48c.56 0 1.04-.24 1.04-.96.08-.96.16-3.12.16-5.13.8-.16 1.76-.4 2.72-.64l4.8 7.45 3.84-2-4.38-6.81zm12.41-6.8c.4 2.88-.72 9.93-3.44 13.53-3.6 4.8-11.05 8.25-15.86 7.29-3.92-.72-7.45-2.32-10.01-5.05-2.8-2.96-4.48-8.41-4.72-11.37-.48-5.21 1.76-10.09 4.96-13.85 2.72-3.12 11.21-6.09 15.38-5.69 2.72.32 7.53 3.04 9.85 6.01 1.68 2.16 3.52 5.85 3.92 9.13h-.08zm5.44-1.77c-.64-3.6-2.96-8.65-5.85-11.69-3.36-3.52-10.09-6.41-13.53-6.57-4.32-.16-14.73 2.8-18.82 6.73-3.84 3.84-6.81 11.13-6.89 18.02 0 4.24 2.56 10.65 6.09 14.41 3.52 3.68 8.41 6.01 14.17 6.81 4.72.64 14.98-3.04 19.78-8.97 4.24-5.29 6.01-13.77 5.05-18.82v.08z"/><g fill-rule="evenodd" clip-rule="evenodd"><path d="M128.11 108.27l24.01-4.19c.94-.16 1.81.07 2.53.67.73.61 1.11 1.42 1.11 2.36v45.57c0 1.7-1.39 3.08-3.1 3.08h-35.19c-.74 0-1.38-.32-1.84-.93a2.37 2.37 0 01-.4-2.06l11.17-42.79c.22-.88.84-1.55 1.71-1.71zm24.54-77.35H97.58c-.74 0-1.38-.32-1.84-.93a2.37 2.37 0 01-.4-2.06l6.83-26.17C102.45.71 103.34 0 104.41 0h48.24c1.71 0 3.1 1.38 3.1 3.08v24.76c.01 1.7-1.39 3.08-3.1 3.08zm-64.51 75.33l65.18-14.37c1.44-.32 2.43-1.55 2.43-3V44.55c0-1.7-1.39-3.08-3.1-3.08H73c-.73 0-1.37.32-1.82.91-.45.6-.6 1.3-.42 2.04l14.6 60.1a2.32 2.32 0 002.78 1.73z" fill="#00a5d9"/><path d="M2.38 138.03l108.65-25.68c.82-.19 1.61.04 2.19.66.58.62.79 1.44.57 2.27L103.69 154c-.27 1.05-1.17 1.76-2.24 1.76H3.1c-1.71 0-3.1-1.38-3.1-3.08v-11.66c0-1.44.97-2.65 2.38-2.99zM81.57 30.92H0V3.08C0 1.38 1.39 0 3.1 0h85.3c.74 0 1.38.32 1.84.93.45.61.59 1.32.4 2.06l-6.83 26.17c-.27 1.05-1.17 1.76-2.24 1.76zM3.85 126.85l69.27-16.87c.62-.15 1.11-.52 1.44-1.08.33-.56.42-1.17.27-1.81l-15.5-63.82c-.26-1.07-1.17-1.8-2.25-1.8H3.1c-1.71 0-3.1 1.38-3.1 3.08v79.31c0 .98.41 1.82 1.19 2.42.78.61 1.7.8 2.66.57z" fill="#87683f"/></g><path d="M274.66 93.07c0-17.12-24.62-19.49-37.48-22.62-4.75-1.12-14.24-3.25-14.24-9.12 0-15.87 34.86-13.87 45.61-13.62l-4.75-15.49c-12.25 0-27.49 2.37-39.86 6.37-5.62 1.87-17.87 11.25-17.87 22.62 0 23.12 29.86 22.99 45.86 28.61 4.75 1.75 6.25 3.37 6.25 5.25.13 3.62-2.12 6.87-4.75 8-14.24 6.37-34.86 5.62-50.35 5.25l3.25 13.62c6.37.5 10.75.75 15.12.75 12.99 0 34.24-1.5 45.36-12v.12c3.35-3.12 7.85-9.99 7.85-17.74zm54.35 20.74c-3.75-.87-12.62-3.12-15.99-6.25-2.62-2.5-3.25-3.37-3.25-11.12l.25-33.24h17.12l.25-12.74h-17.37l.12-16.62-15.49 2.12-.25 14.49h-10.62l-.37 12.49 10.87.12-.37 33.36c-.12 9.12.87 12.37 5.87 17.99 4.37 5 19.99 11.37 19.99 11.37v.13l9.24-12.1zm25.37-29.92c.62-5.64 1.87-13.29 3.62-14.93 2.37-2.25 11-4.87 16.49-5.12 2.5-.13 8.5 3 9.62 4.75l.13-.13c1.87 2.77 3.62 6.89 4.12 10.91l-33.98 4.52zm48.73-5.02c-.25-5.89-5.37-19.03-8.12-21.41-3.37-2.75-13.99-7.75-21.24-7.62-7.75.25-21.37 4.75-25.11 7.62-8.25 6.37-10.5 22.66-10.37 30.92 0 7.39 3.5 21.93 9.37 27.18 4.75 4.12 15.12 6 22.12 6h4.25c6.75 0 13.74-1.12 21.87-3.5l.38-14.62c-9.25 3.5-15.62 5-21.62 5-.62 0-1.87-.25-3.37-.38-11.37-.75-13.37-1.12-16.12-11.39l47.36-5.89c.6-4.64.72-9.04.6-11.91zm31.48 42.19c-.37-4-.13-9-.13-11.62l-.62-26.74c-.25-11.37.38-19.99.13-31.36-5.62 2.25-16.37 1.12-16.37 1.12s.12 6.37.12 10.5c.25 14.74.62 27.86 0 42.61-.12 4.62 0 7.75 0 11.5v6.25c6.5-3.25 11-3.5 16.87-2.37v.11zm-.37-92.34h-9.25l-8.12 1.5v8.37l1.5 6 8.62.5 8.25-2.37-1-14zm81.84 90.84c-1.37-8-.75-18.87-.75-27.11 0-11.25-.25-23.62-1.75-29.86-2.75-11.12-8.87-15.37-19.87-12.49-7.5 1.87-18.74 4.62-24.12 5.87v-5.12l-15.62 2.62.38 66.6h16.12l-1.25-50.6c5.75-1.5 21.74-6 27.24-6.5 3.5-.25 3.75 13.49 3.87 27.11.25 14.74-.62 32.61-.62 32.61l16.37-3.13z" fill="#87683f"/><path class="st0" d="M583.78 48.59c4.12 2.5 2.75 22.12-4.12 25.74-3.37 1.87-18.37 5.5-29.36 8v-1.87c0-13.74.13-26.99.38-35.74 8.87-.38 18.74-.62 20.62-.12 2.62.75 4.75 1.12 6.75 1.62 1.87.37 3.62 1 5.75 2.25v.12h-.02zm-3.12 40.23c4.75-1.5 9-3.12 11.12-5 11.12-9.75 14.87-38.86 3.37-47.11-6.5-4.62-12.12-3.87-19.62-5.25-6.37-1.12-41.36 1.37-41.36 1.37s.25 5.62.25 7.12c0 2.62-.13 40.11-.13 73.97 0 2.37-.37 4.5.62 6.75 2.12.25 4.62.12 6.75-.25 1.62-.25 8.75.25 8.75.25s.12-.62.12-2.62c0-3.87.25-13.12.25-21.49 4.12-.87 9.12-2 14.24-3.25l20.99 29.74 14.12-6.75-19.47-27.48zm47.48-4.93c.62-5.64 1.87-13.29 3.62-14.93 2.37-2.25 11-4.87 16.49-5.12 2.5-.13 8.5 3 9.62 4.75l.13-.13c1.87 2.77 3.62 6.89 4.12 10.91l-33.98 4.52zm48.73-5.02c-.25-5.89-5.37-19.03-8.12-21.41-3.37-2.75-13.99-7.75-21.24-7.62-7.75.25-21.37 4.75-25.11 7.62-8.25 6.37-10.5 22.66-10.37 30.92 0 7.39 3.5 21.93 9.37 27.18 4.75 4.12 15.12 6 22.12 6h4.25c6.75 0 13.74-1.12 21.87-3.5l.37-14.62c-9.25 3.5-15.62 5-21.62 5-.62 0-1.87-.25-3.37-.38-11.37-.75-13.37-1.12-16.12-11.39l47.36-5.89c.61-4.64.73-9.04.61-11.91zm31.49 42.19c-.38-4-.13-9-.13-11.62l-.62-26.74c-.25-11.37.37-19.99.13-31.36-5.62 2.25-16.37 1.12-16.37 1.12s.12 6.37.12 10.5c.25 14.74.62 27.86 0 42.61-.12 4.62 0 7.75 0 11.5v6.25c6.5-3.25 11-3.5 16.87-2.37v.11zm-.38-92.34h-9.25l-8.12 1.5v8.37l1.5 6 8.62.5 8.25-2.37-1-14zm81.84 90.84c-1.37-8-.75-18.87-.75-27.11 0-11.25-.25-23.62-1.75-29.86-2.75-11.12-8.87-15.37-19.87-12.49-7.5 1.87-18.74 4.62-24.12 5.87v-5.12l-15.62 2.62.37 66.6h16.12l-1.25-50.6c5.75-1.5 21.74-6 27.24-6.5 3.5-.25 3.75 13.49 3.87 27.11.25 14.74-.62 32.61-.62 32.61l16.38-3.13z"/></g></switch></svg>