<svg version="1.1" xmlns="http://www.w3.org/2000/svg" x="0" y="0" viewBox="0 0 215 302" xml:space="preserve">
  <switch>
    <g>
      <linearGradient id="a" gradientUnits="userSpaceOnUse" x1="107.5" y1="302" x2="107.5" y2="0">
        <stop offset="0" stop-color="#006df0"/>
        <stop offset="1" stop-color="#00e7f0"/>
      </linearGradient>
      <path d="M17.51 0C7.85 0 0 7.85 0 17.51V284.42C0 294.11 7.89 302 17.58 302H215V0H17.51zM210 297H17.58C10.64 297 5 291.36 5 284.42v-1.84C5 275.64 10.64 270 17.58 270H210v27zM17.58 265c-4.93 0-9.38 2.05-12.58 5.32V17.51C5 10.61 10.61 5 17.51 5H210v260H17.58z" fill="url(#a)"/>
      <linearGradient id="b" gradientUnits="userSpaceOnUse" x1="107.637" y1="176.987" x2="107.637" y2="28.274">
        <stop offset="0" stop-color="#006df0"/>
        <stop offset="1" stop-color="#00e7f0"/>
      </linearGradient>
      <path d="M107.55 28.27c-2.67 0-5.33.14-7.98.43-2.43.25-4.83.66-7.2 1.15A74.31 74.31 0 0054.32 50.7c-.93.95-1.84 1.93-2.73 2.94-27.01 31-23.77 78.03 7.24 105.04 29.68 25.86 74.36 24.13 101.97-3.93.93-.95 1.84-1.93 2.73-2.94a74.312 74.312 0 0018.48-49.08c-.01-41.12-33.34-74.46-74.46-74.46zm-53.5 118.76a69.334 69.334 0 01-15.93-41.83h12.71c-.05-.95-.07-1.91-.07-2.87 0-.7.02-1.4.04-2.1H38.12A69.334 69.334 0 0154.05 58.4a87.43 87.43 0 0011.82 5.3 55.8 55.8 0 013.93-3.85 82.044 82.044 0 01-12.4-5.19l.22-.25c.39-.41.8-.8 1.2-1.19.46-.45.92-.91 1.39-1.35.41-.39.84-.76 1.27-1.14.48-.42.96-.85 1.45-1.26.43-.36.88-.71 1.32-1.07.5-.4.99-.79 1.5-1.18.45-.34.91-.67 1.37-.99a54.131 54.131 0 012.97-2.02c.53-.34 1.06-.68 1.6-.99.48-.29.97-.57 1.46-.85.55-.31 1.1-.62 1.66-.92.5-.26.99-.52 1.49-.78.57-.29 1.14-.56 1.71-.83.5-.24 1.01-.47 1.52-.69.58-.25 1.17-.5 1.76-.74.51-.21 1.02-.42 1.54-.62.6-.23 1.21-.44 1.82-.66.52-.18 1.04-.36 1.56-.53.62-.2 1.24-.38 1.87-.56.52-.15 1.04-.31 1.57-.45.2-.05.4-.09.6-.15a61.59 61.59 0 00-13.26 18.92c2.51-1.61 5.14-3.02 7.86-4.21 5.5-9.51 12.51-15.64 20.2-16.73v12.05a56.062 56.062 0 014.96-.01V33.43c7.66 1.09 14.64 7.16 20.13 16.6 2.72 1.17 5.35 2.55 7.86 4.14a61.774 61.774 0 00-13.19-18.73c.2.05.4.09.61.15.52.13 1.04.29 1.56.44.63.18 1.26.37 1.88.57.52.17 1.04.35 1.56.53.61.21 1.22.43 1.82.66.52.2 1.02.4 1.54.61.59.25 1.19.5 1.77.74.51.22 1.01.45 1.51.69.58.27 1.15.55 1.74.84.5.25.99.5 1.49.77.56.3 1.12.61 1.67.93.5.28.97.56 1.45.85.55.33 1.08.67 1.62 1.01.47.3.94.61 1.41.92.53.36 1.05.73 1.57 1.1.46.33.91.65 1.36.99.51.38 1.01.78 1.52 1.19.44.35.88.69 1.31 1.06.5.41.98.84 1.46 1.27.42.37.85.74 1.26 1.13.47.44.93.9 1.39 1.35.4.39.81.78 1.2 1.19.07.08.14.16.21.23a83.372 83.372 0 01-12.26 5.14c.84.74 1.66 1.51 2.45 2.31.51.51 1 1.03 1.49 1.55 4-1.45 7.9-3.2 11.65-5.23a69.334 69.334 0 0115.93 41.83h-12.32c-.62-14.25-6.46-27.57-16.61-37.72C137.3 51.77 123 45.85 107.8 45.85s-29.49 5.92-40.24 16.67c-10.75 10.75-16.67 25.04-16.67 40.24 0 14.56 5.43 28.28 15.33 38.86a86.912 86.912 0 00-12.17 5.41zm53.75 8.63c-29.17 0-52.9-23.73-52.9-52.9s23.73-52.9 52.9-52.9 52.9 23.73 52.9 52.9-23.73 52.9-52.9 52.9zm-18.15 14.19c-.5-.13-1.02-.29-1.54-.44-.63-.18-1.26-.37-1.88-.57-.52-.17-1.04-.35-1.56-.53-.61-.21-1.22-.43-1.82-.66-.52-.2-1.02-.4-1.54-.61-.59-.25-1.19-.5-1.77-.74-.51-.22-1.01-.45-1.51-.69-.58-.27-1.15-.55-1.74-.84-.5-.25-.99-.5-1.49-.77-.56-.3-1.12-.61-1.67-.93-.5-.28-.97-.56-1.45-.85-.55-.33-1.08-.67-1.62-1.01-.47-.3-.94-.61-1.41-.92-.53-.36-1.05-.73-1.57-1.1-.45-.33-.91-.65-1.35-.99-.51-.39-1.02-.79-1.52-1.19-.44-.35-.88-.7-1.31-1.06-.5-.41-.98-.84-1.46-1.27-.42-.37-.85-.74-1.26-1.13-.47-.44-.93-.9-1.39-1.35-.4-.39-.81-.78-1.2-1.19-.07-.08-.14-.16-.21-.23 4.12-2.13 8.4-3.9 12.81-5.31a56.6 56.6 0 006.53 4.98 61.474 61.474 0 0013.53 19.54 6.5 6.5 0 01-.6-.14zm-5.08-15.1c6.4 2.86 13.33 4.52 20.5 4.86v12.4c-7.84-1.11-14.95-7.45-20.5-17.26zm25.46 17.26v-12.38c7.1-.27 13.97-1.84 20.33-4.59-5.52 9.65-12.57 15.87-20.33 16.97zm47.45-20.98c-.39.4-.8.79-1.2 1.19-.46.45-.92.91-1.4 1.35-.41.38-.84.74-1.26 1.13-.48.43-.96.85-1.45 1.27-.43.36-.88.71-1.32 1.06-.5.4-.99.79-1.5 1.18-.45.34-.91.67-1.37.99a54.131 54.131 0 01-2.97 2.02c-.53.34-1.07.67-1.61.99-.5.29-.97.57-1.46.85-.55.31-1.1.62-1.66.92-.5.26-.99.52-1.49.78-.57.29-1.14.56-1.71.83-.5.24-1.01.47-1.52.69-.58.25-1.17.5-1.76.74-.51.21-1.02.42-1.54.61-.61.23-1.21.45-1.82.66-.52.18-1.03.36-1.56.53-.62.2-1.24.38-1.87.57-.52.15-1.04.31-1.56.45-.2.05-.4.09-.6.15a61.572 61.572 0 0013.29-19.04c2.5-1.58 4.89-3.37 7.15-5.35a82.7 82.7 0 0112.42 5.19c-.09.08-.16.16-.23.24zm3.57-4a85.143 85.143 0 00-11.79-5.27c9.42-10 14.83-22.85 15.4-36.55h12.32a69.33 69.33 0 01-15.93 41.82z" fill="url(#b)"/>
      <linearGradient id="c" gradientUnits="userSpaceOnUse" x1="104.324" y1="129.424" x2="104.324" y2="55.147">
        <stop offset="0" stop-color="#006df0"/>
        <stop offset="1" stop-color="#00e7f0"/>
      </linearGradient>
      <path d="M85.03 80.98h-6.29l17.14 48.44 9.59-27.41-7.44-21.03H91.4v-4.62h29.37v4.62h-6.88l17.14 48.44 6.16-17.6c8.08-22.55-6.62-29.58-6.62-34.61 0-5.03 4.08-9.11 9.11-9.11.27 0 .54.01.8.04-8.53-8.05-20.03-12.99-32.68-12.99-16.53 0-31.1 8.43-39.63 21.22h16.87v4.61z" fill="url(#c)"/>
      <linearGradient id="d" gradientUnits="userSpaceOnUse" x1="72.83" y1="144.835" x2="72.83" y2="84.089">
        <stop offset="0" stop-color="#006df0"/>
        <stop offset="1" stop-color="#00e7f0"/>
      </linearGradient>
      <path d="M60.18 102.77c0 18.23 10.25 34.07 25.29 42.07L63.99 84.09a47.423 47.423 0 00-3.81 18.68z" fill="url(#d)"/>
      <linearGradient id="e" gradientUnits="userSpaceOnUse" x1="142.802" y1="144.804" x2="142.802" y2="79.301">
        <stop offset="0" stop-color="#006df0"/>
        <stop offset="1" stop-color="#00e7f0"/>
      </linearGradient>
      <path d="M149.24 79.3c.68 4.01.47 8.52-.57 13.04h.19l-.72 2.06a44.58 44.58 0 01-1.57 4.5l-16.39 45.9c15.02-8.01 25.24-23.83 25.24-42.04a47.4 47.4 0 00-6.18-23.46z" fill="url(#e)"/>
      <linearGradient id="f" gradientUnits="userSpaceOnUse" x1="107.481" y1="150.385" x2="107.481" y2="108.904">
        <stop offset="0" stop-color="#006df0"/>
        <stop offset="1" stop-color="#00e7f0"/>
      </linearGradient>
      <path d="M93.12 148.07c4.63 1.5 9.56 2.31 14.69 2.31 4.89 0 9.6-.74 14.04-2.11l-13.93-39.37-14.8 39.17z" fill="url(#f)"/>
    </g>
  </switch>
</svg>