<svg id="Ebene_1" data-name="Ebene 1" xmlns="http://www.w3.org/2000/svg" viewBox="0 0 357.71 279.12"><defs><style>.cls-1{fill:#160351;}</style></defs><path class="cls-1" d="M296.11,137.34A66.77,66.77,0,0,0,267,127.41V110h-4c-2.27,0-53.2.25-83,20.5C151.09,107.3,95.36,107,93,107H89V127.7a67,67,0,0,0-29.12,9.94L58,138.81V266h4c.68,0,66-.08,96.73,12.1l2.49,1,1.86-1.93q.85-.88,1.68-1.68c.57-.55,1.12-1.07,1.67-1.56,5.94-5.37,10.41-7.3,11.94-7.85,2.39,1,7.81,3.81,14.53,10.79l1.86,1.94,2.49-1c30.71-12.18,96.13-12.1,96.73-12.11l4,0V138.52ZM182,139c22.73-17.35,64-20.32,77-20.83V239.06c-40.29.54-66.09,9.14-77,13.7ZM97,115.13c13,.51,54.27,3.48,77,20.83V252.27c-11.08-5.46-36.89-15.57-77-16.21ZM66,143.29a59.58,59.58,0,0,1,23-7.54V244h4c42.67,0,69.46,11.36,78.93,16.2l-.06,0c-.23.11-.46.24-.69.37l-.56.31-.75.44-.6.36-.81.52-.64.42c-.29.19-.58.4-.88.61l-.67.47c-.31.22-.62.46-.94.7l-.69.53c-.34.26-.68.54-1,.82l-.7.58c-.37.31-.74.64-1.12,1-.22.2-.45.38-.67.59l-1.32,1.22-.55.52-.06.06C130.71,259.53,80.6,258.21,66,258.05ZM290,257.75c-14.61.17-64.72,1.48-93.2,11.71a56.71,56.71,0,0,0-12-9.15C195,256,221.54,247,263,247h4V135.46A59.4,59.4,0,0,1,290,143Z"/><path class="cls-1" d="M43.89,19.3,53.64,43,68.36,3.29H60.54v-2H76.19V3.29H70.65l-19.86,53h-1.4L39.12,31.37l-10,24.92H27.6L6,3.29H0v-2H56.13V3.29H50.35ZM32.06,43.45,38,28.61,27.6,3.29H15.69ZM37.39,3.29l5.42,13.2,5.33-13.2Z"/><path class="cls-1" d="M93.45,30.41V53h8.7v2H75.35V53H83.9V3.29H75.35v-2h27.72q9.39,0,14.15,4.18A13.12,13.12,0,0,1,122,15.69a13.45,13.45,0,0,1-4.79,10.49q-4.8,4.23-16,4.23Zm0-27.12v25h5.17a27.71,27.71,0,0,0,6.74-.68A8,8,0,0,0,110,24q1.94-2.93,1.94-9.07,0-5.42-1.7-8a7,7,0,0,0-4-3.13,24.09,24.09,0,0,0-5.77-.58Z"/><path class="cls-1" d="M140.75,30.41V53h8.71v2h-26.8V53h8.54V3.29h-8.54v-2h27.72q9.39,0,14.14,4.18a13.13,13.13,0,0,1,4.76,10.27,13.43,13.43,0,0,1-4.8,10.49q-4.78,4.23-15.94,4.23Zm0-27.12v25h5.18a27.71,27.71,0,0,0,6.74-.68A8,8,0,0,0,157.3,24q1.95-2.93,1.95-9.07,0-5.42-1.71-8a6.93,6.93,0,0,0-4-3.13,24.18,24.18,0,0,0-5.78-.58Z"/><path class="cls-1" d="M188.46,3.29V26.36h4.86a16.47,16.47,0,0,0,4.35-.5,5.92,5.92,0,0,0,3.21-2.71q1.43-2.2,1.62-6.9h2.09V39H202.5c-.21-4.34-1.05-7.19-2.5-8.57s-3.69-2.07-6.68-2.07h-4.86V53h10.95q9.32,0,12.9-3.91T216.59,37h2l-.52,18h-47.7V53H179V3.29h-8.54v-2h45.73l.93,14.37h-2c-.7-4.36-2.12-7.51-4.29-9.43S205,3.29,199.9,3.29Z"/><path class="cls-1" d="M228.83,53V3.29h-8.39v-2h25.4a39,39,0,0,1,14.42,2.39q6,2.38,10,9.35a29.65,29.65,0,0,1,4,15.1,27.64,27.64,0,0,1-4.41,15.41q-4.41,6.78-10.17,9.17a36.65,36.65,0,0,1-14,2.38H220.44V53Zm9.55-49.71V53h7a33.41,33.41,0,0,0,9-1,10.26,10.26,0,0,0,5.74-4.38,20.78,20.78,0,0,0,3.07-8.54,91,91,0,0,0,.8-13.52q0-10-2.54-15t-6.24-6.12a32.6,32.6,0,0,0-9.63-1.18Z"/><path class="cls-1" d="M285.32,53V3.29h-8.78v-2h27.2V3.29h-8.87V53h8.87v2h-27.2V53Z"/><path class="cls-1" d="M335.52,38.27H318.43L312.93,53h9.95v2h-19.5V53h7.43L330.42,0h1.25l18.81,53h7.23v2H332.07V53h8.71Zm-16.33-2H334.8l-7.58-21.55h-.17Z"/><path class="cls-1" d="M138.53,187.54,123.87,186l-5.45,10.16,8.53.89-.1,1.48-16.73-1.74.11-1.48,6.36.66,19.51-36.61,1.06.11,13.47,40,6.19.65-.1,1.48-22-2.28.1-1.49,7.47.78Zm-13.9-2.94L138,186l-5.42-16.27h-.13Z"/><path class="cls-1" d="M233.2,194.43,198.9,203l.1-1.56,28-44.4-10.55,2.64q-5.78,1.46-8.17,4.18a19.36,19.36,0,0,0-3.76,8.14l-1.57.39,1.39-11.21,32.1-8-.07,1.1-28.46,45,10.94-2.75a27.64,27.64,0,0,0,7.13-2.61,13.09,13.09,0,0,0,4.45-5.25,25.35,25.35,0,0,0,2.67-7.44l1.64-.41Z"/></svg>