
<svg xmlns="http://www.w3.org/2000/svg" width="461.023" height="287.689" viewBox="0 0 121.979 76.118" version="1.1" id="svg8"><defs id="defs2"><style id="style39">.cls-1{fill:#160351}</style></defs><g id="layer1" transform="translate(-12.223 -61.264)" opacity="1"><g id="g79" transform="matrix(.26458 0 0 .26458 10.886 34.137)" opacity="1"><path class="cls-1" d="M301.16 248.457a66.77 66.77 0 00-29.11-9.93v-17.41h-4c-2.27 0-53.2.25-83 20.5-28.91-23.2-84.64-23.5-87-23.5h-4v20.7a67 67 0 00-29.12 9.94l-1.88 1.17v127.19h4c.68 0 66-.08 96.73 12.1l2.49 1 1.86-1.93q.85-.88 1.68-1.68c.57-.55 1.12-1.07 1.67-1.56 5.94-5.37 10.41-7.3 11.94-7.85 2.39 1 7.81 3.81 14.53 10.79l1.86 1.94 2.49-1c30.71-12.18 96.13-12.1 96.73-12.11h4v-127.18zm-114.11 1.66c22.73-17.35 64-20.32 77-20.83v120.89c-40.29.54-66.09 9.14-77 13.7zm-85-23.87c13 .51 54.27 3.48 77 20.83v116.31c-11.08-5.46-36.89-15.57-77-16.21zm-31 28.16a59.58 59.58 0 0123-7.54v108.25h4c42.67 0 69.46 11.36 78.93 16.2h-.06c-.23.11-.46.24-.69.37l-.56.31-.75.44-.6.36-.81.52-.64.42c-.29.19-.58.4-.88.61l-.67.47c-.31.22-.62.46-.94.7l-.69.53c-.34.26-.68.54-1 .82l-.7.58c-.37.31-.74.64-1.12 1-.22.2-.45.38-.67.59l-1.32 1.22-.55.52-.06.06c-28.51-10.19-78.62-11.51-93.22-11.67zm224 114.46c-14.61.17-64.72 1.48-93.2 11.71a56.71 56.71 0 00-12-9.15c10.2-4.31 36.74-13.31 78.2-13.31h4v-111.54a59.4 59.4 0 0123 7.54z" id="path43"/><path class="cls-1" d="M48.94 130.417l9.75 23.7 14.72-39.71h-7.82v-2h15.65v2H75.7l-19.86 53h-1.4l-10.27-24.92-10 24.92h-1.52l-21.6-53h-6v-2h56.13v2H55.4zm-11.83 24.15l5.94-14.84-10.4-25.32H20.74zm5.33-40.16l5.42 13.2 5.33-13.2z" id="path45"/><path class="cls-1" d="M98.5 141.527v22.59h8.7v2H80.4v-2h8.55v-49.71H80.4v-2h27.72q9.39 0 14.15 4.18a13.12 13.12 0 014.78 10.22 13.45 13.45 0 01-4.79 10.49q-4.8 4.23-16 4.23zm0-27.12v25h5.17a27.71 27.71 0 006.74-.68 8 8 0 004.64-3.61q1.94-2.93 1.94-9.07 0-5.42-1.7-8a7 7 0 00-4-3.13 24.09 24.09 0 00-5.77-.58z" id="path47"/><path class="cls-1" d="M145.8 141.527v22.59h8.71v2h-26.8v-2h8.54v-49.71h-8.54v-2h27.72q9.39 0 14.14 4.18a13.13 13.13 0 014.76 10.27 13.43 13.43 0 01-4.8 10.49q-4.78 4.23-15.94 4.23zm0-27.12v25h5.18a27.71 27.71 0 006.74-.68 8 8 0 004.63-3.61q1.95-2.93 1.95-9.07 0-5.42-1.71-8a6.93 6.93 0 00-4-3.13 24.18 24.18 0 00-5.78-.58z" id="path49"/><path class="cls-1" d="M193.51 114.407v23.07h4.86a16.47 16.47 0 004.35-.5 5.92 5.92 0 003.21-2.71q1.43-2.2 1.62-6.9h2.09v22.75h-2.09c-.21-4.34-1.05-7.19-2.5-8.57s-3.69-2.07-6.68-2.07h-4.86v24.64h10.95q9.32 0 12.9-3.91t4.28-12.09h2l-.52 18h-47.7v-2h8.63v-49.71h-8.54v-2h45.73l.93 14.37h-2c-.7-4.36-2.12-7.51-4.29-9.43s-5.83-2.94-10.93-2.94z" id="path51"/><path class="cls-1" d="M233.88 164.117v-49.71h-8.39v-2h25.4a39 39 0 0114.42 2.39q6 2.38 10 9.35a29.65 29.65 0 014 15.1 27.64 27.64 0 01-4.41 15.41q-4.41 6.78-10.17 9.17a36.65 36.65 0 01-14 2.38h-25.24v-2.09zm9.55-49.71v49.71h7a33.41 33.41 0 009-1 10.26 10.26 0 005.74-4.38 20.78 20.78 0 003.07-8.54 91 91 0 00.8-13.52q0-10-2.54-15t-6.24-6.12a32.6 32.6 0 00-9.63-1.18z" id="path53"/><path class="cls-1" d="M290.37 164.117v-49.71h-8.78v-2h27.2v2h-8.87v49.71h8.87v2h-27.2v-2z" id="path55"/><path class="cls-1" d="M340.57 149.387h-17.09l-5.5 14.73h9.95v2h-19.5v-2h7.43l19.61-53h1.25l18.81 53h7.23v2h-25.64v-2h8.71zm-16.33-2h15.61l-7.58-21.55h-.17z" id="path57"/><path class="cls-1" d="M143.58 298.657l-14.66-1.54-5.45 10.16 8.53.89-.1 1.48-16.73-1.74.11-1.48 6.36.66 19.51-36.61 1.06.11 13.47 40 6.19.65-.1 1.48-22-2.28.1-1.49 7.47.78zm-13.9-2.94l13.37 1.4-5.42-16.27h-.13z" id="path59"/><path class="cls-1" d="M238.25 305.547l-34.3 8.57.1-1.56 28-44.4-10.55 2.64q-5.78 1.46-8.17 4.18a19.36 19.36 0 00-3.76 8.14l-1.57.39 1.39-11.21 32.1-8-.07 1.1-28.46 45 10.94-2.75a27.64 27.64 0 007.13-2.61 13.09 13.09 0 004.45-5.25 25.35 25.35 0 002.67-7.44l1.64-.41z" id="path61"/><rect id="rect81" width="85.863" height="36.365" x="380.211" y="102.528" ry="10.149" opacity=".65" fill="#160351" fill-opacity="1" fill-rule="evenodd" stroke-width=".827"/><g aria-label="PRO" id="text125" style="line-height:1.25" font-style="normal" font-weight="400" font-size="27.115" font-family="sans-serif" fill="#000" fill-opacity="1" stroke="none" stroke-width=".678"><g id="g32" transform="translate(-.367 -.55)" font-style="normal" font-variant="normal" font-weight="700" font-stretch="normal" font-family="Open Sans" fill="#fff" stroke-width=".678"><path d="M401.864 120.574h1.35q1.894 0 2.834-.742.94-.755.94-2.184 0-1.444-.795-2.132-.78-.689-2.462-.689h-1.867zm9.268-3.072q0 3.125-1.96 4.78-1.946 1.655-5.547 1.655h-1.761v6.884h-4.104v-19.356h6.183q3.521 0 5.349 1.522 1.84 1.51 1.84 4.515z" style="-inkscape-font-specification:'Open Sans Bold'" id="path22"/><path d="M418.89 120.057h1.324q1.947 0 2.874-.649.926-.648.926-2.038 0-1.377-.953-1.96-.94-.583-2.926-.583h-1.245zm0 3.337v7.427h-4.104v-19.356h5.64q3.946 0 5.84 1.443 1.892 1.43 1.892 4.356 0 1.708-.94 3.045-.94 1.324-2.66 2.078 4.368 6.528 5.692 8.434h-4.554l-4.62-7.427z" style="-inkscape-font-specification:'Open Sans Bold'" id="path24"/><path d="M450.256 121.116q0 4.807-2.383 7.388-2.384 2.582-6.832 2.582-4.449 0-6.832-2.582-2.383-2.581-2.383-7.414t2.383-7.375q2.396-2.555 6.858-2.555t6.819 2.569q2.37 2.568 2.37 7.387zm-14.127 0q0 3.244 1.231 4.886t3.68 1.642q4.913 0 4.913-6.528 0-6.54-4.886-6.54-2.45 0-3.694 1.655-1.244 1.642-1.244 4.885z" style="-inkscape-font-specification:'Open Sans Bold'" id="path26"/></g></g></g></g></svg>