<svg height="512" width="512" xmlns="http://www.w3.org/2000/svg"><path fill="#FFF" d="M330 511.62V248.054c-8.873-5.187-19.005-8.434-30-8.434H180v242h120c16.553 0 30 13.462 30 30zm-90-212h60v30h-60zm0 60h60v30h-60zM360 248.054V511.62c0-16.538 13.447-30 30-30h122v-242H390c-10.995 0-21.127 3.247-30 8.434zm90 141.566h-60v-30h60zm0-60h-60v-30h60zM210 31.949c-33.329 9.322-62.111 48.816-77.659 102.671H210zM240 31.949V134.62h77.659C302.111 80.765 273.329 41.271 240 31.949zM349.091 134.62h81.995C398.203 59.618 325.589 6.064 240 .38v.63c49.682 8.778 90.478 60.71 109.091 133.61zM95.277 284.62c-3.19-19.277-5.277-39.261-5.277-60 0-20.892 1.767-40.931 4.823-60H8.37C3.062 183.755 0 203.817 0 224.62c0 20.673 2.889 40.807 8.271 60zM210 1.01V.38C124.411 6.064 51.797 59.618 18.915 134.62h81.995C119.522 61.72 160.318 9.788 210 1.01zM150 314.62h-17.567c4.688 16.278 10.671 31.179 17.567 44.509zM359.639 215.855c9.855-3.69 19.929-6.235 30.361-6.235h58.925c-1.095-15.427-3.287-30.551-7.295-45h-86.453c2.62 16.346 4.039 33.536 4.462 51.235zM19.252 314.62C44.046 370.729 91.302 415.174 150 436.224v-24.382c-21.295-23.983-38.057-57.817-48.344-97.222zM329.586 215.525c-.48-17.569-2.025-34.715-4.953-50.905H240v45h60c10.157 0 19.975 2.408 29.586 5.905z"/><path fill="#FFF" d="M150 209.62h60v-45h-84.633a337.804 337.804 0 0 0-5.367 60c0 20.735 2.021 40.878 5.477 60H150z"/></svg>